<svg width="26" height="26" viewBox="0 0 26 26" fill="none" xmlns="http://www.w3.org/2000/svg">
<g clip-path="url(#clip0_9_1106)">
<path d="M25.4881 13.0323C25.4881 11.9841 25.403 11.2191 25.2189 10.4259H13.249V15.1571H20.2751C20.1335 16.3329 19.3686 18.1036 17.6687 19.2935L17.6448 19.4518L21.4295 22.3838L21.6917 22.41C24.0998 20.1859 25.4881 16.9137 25.4881 13.0323Z" fill="#4285F4"/>
<path d="M13.249 25.498C16.6912 25.498 19.581 24.3647 21.6917 22.41L17.6687 19.2935C16.5921 20.0442 15.1472 20.5684 13.249 20.5684C9.87764 20.5684 7.01621 18.3444 5.99619 15.2705L5.84668 15.2832L1.91133 18.3288L1.85986 18.4719C3.95635 22.6365 8.2627 25.498 13.249 25.498Z" fill="#34A853"/>
<path d="M5.99619 15.2705C5.72705 14.4772 5.57129 13.6272 5.57129 12.749C5.57129 11.8707 5.72705 11.0208 5.98203 10.2275L5.9749 10.0586L1.99023 6.96405L1.85986 7.02606C0.995801 8.75428 0.5 10.695 0.5 12.749C0.5 14.803 0.995801 16.7436 1.85986 18.4719L5.99619 15.2705Z" fill="#FBBC05"/>
<path d="M13.249 4.92959C15.643 4.92959 17.2578 5.96367 18.1786 6.82783L21.7767 3.31475C19.5669 1.26074 16.6912 0 13.249 0C8.26269 0 3.95635 2.86143 1.85986 7.02607L5.98203 10.2275C7.01621 7.15361 9.87764 4.92959 13.249 4.92959Z" fill="#EB4335"/>
</g>
<defs>
<clipPath id="clip0_9_1106">
<rect width="25" height="25.5859" fill="white" transform="translate(0.5)"/>
</clipPath>
</defs>
</svg>
