<svg width="35" height="35" viewBox="0 0 35 35" fill="none" xmlns="http://www.w3.org/2000/svg">
<path d="M16.8642 15.1375L7.525 11.1737C7.12834 11.0192 6.89598 10.7372 6.82792 10.3279C6.75986 9.91861 6.87216 9.56812 7.16479 9.27646L7.52354 8.88854C7.66257 8.75048 7.82056 8.65618 7.9975 8.60562C8.17445 8.55507 8.3616 8.54486 8.55896 8.575L21.264 10.7683L25.8402 6.18187C26.2495 5.77354 26.7444 5.56937 27.3248 5.56937C27.9052 5.56937 28.4006 5.77354 28.8108 6.18187C29.2201 6.59118 29.4248 7.08653 29.4248 7.66792C29.4248 8.2493 29.2201 8.74417 28.8108 9.1525L24.2331 13.7375L26.4192 26.4337C26.4483 26.6321 26.4391 26.8212 26.3915 27.001C26.3438 27.1799 26.251 27.3389 26.1129 27.4779L25.7265 27.8279C25.4328 28.1215 25.0804 28.2358 24.6692 28.1706C24.2569 28.1045 23.9735 27.8736 23.819 27.4779L19.861 18.1096L15.3854 22.5779L16.1583 27.1265C16.1894 27.2762 16.187 27.4196 16.151 27.5567C16.116 27.6947 16.0412 27.8206 15.9265 27.9344L15.5313 28.3019C15.3028 28.5303 15.0422 28.6174 14.7496 28.5629C14.4579 28.5085 14.2367 28.3466 14.086 28.0773L11.5938 23.4062L6.92417 20.9125C6.65486 20.7637 6.49299 20.5431 6.43854 20.2504C6.3841 19.9578 6.4716 19.6972 6.70104 19.4688L7.06709 19.0735C7.18084 18.9588 7.30674 18.8791 7.44479 18.8344C7.58188 18.7897 7.72528 18.7824 7.875 18.8125L12.4148 19.6058L16.8642 15.1375Z" fill="url(#paint0_linear_24_219)"/>
<defs>
<linearGradient id="paint0_linear_24_219" x1="17.9238" y1="5.56937" x2="17.9238" y2="28.5786" gradientUnits="userSpaceOnUse">
<stop stop-color="#FFAE00"/>
<stop offset="1" stop-color="#CD941B"/>
</linearGradient>
</defs>
</svg>
